<?xml version="1.0" encoding="UTF-8" standalone="no"?>
<!DOCTYPE svg PUBLIC "-//W3C//DTD SVG 1.1//EN" "http://www.w3.org/Graphics/SVG/1.1/DTD/svg11.dtd">
<svg width="100%" height="100%" viewBox="0 0 23 20" version="1.1" xmlns="http://www.w3.org/2000/svg" xmlns:xlink="http://www.w3.org/1999/xlink" xml:space="preserve" xmlns:serif="http://www.serif.com/" style="fill-rule:evenodd;clip-rule:evenodd;stroke-linejoin:round;stroke-miterlimit:2;">
    <g transform="matrix(1,0,0,1,-235.6,-363.4)">
        <g transform="matrix(0.0375,0,0,-0.0375,235,382.6)">
            <path d="M432,400C381.34,400 339.04,366.15 325.2,320L538.8,320C524.1,366.2 482.7,400 432,400ZM219.9,395.2C232.3,387.9 240,374.5 240,359.9L240,344C240,330.7 250.7,320 264,320C277.3,320 288,330.7 288,344L288,360.2C288,391.54 271.19,420.84 244.09,436.65C231.7,443.86 224,457.27 224,471.61L224,488C224,501.26 213.3,512 200,512C186.7,512 176,501.26 176,488L176,471.61C176,440.27 192.8,411 219.9,395.2ZM592,256L575.96,256C575.854,273.7 561.57,287.99 544.02,288L256,288L256,288.9L96,288.9C78.44,288.9 64.15,273.7 64.04,256L48,256C30.33,256 16,241.67 16,224C16,206.33 30.33,192 48,192L72.18,192C89.37,123.85 133.15,66.5 191.98,32C191.98,14.33 206.31,0 223.98,0L415.08,0C432.75,0 447.08,14.33 447.08,32C505.93,66.47 549.68,123.85 566.88,192L592,192C609.67,192 624,206.33 624,224C624,241.7 609.7,256 592,256ZM107.9,395.2C120.3,387.9 128,374.5 128,359.9L128,344C128,330.7 138.7,320 152,320C165.3,320 176,330.7 176,344L176,360.2C176,391.54 159.19,420.84 132.09,436.65C119.7,443.86 112,457.27 112,471.61L112,488C112,501.26 101.3,512 88,512C74.7,512 64,501.26 64,488L64,471.61C64,440.27 80.81,411 107.9,395.2Z"/>
        </g>
    </g>
</svg>
