<?xml version="1.0" encoding="UTF-8" standalone="no"?>
<!DOCTYPE svg PUBLIC "-//W3C//DTD SVG 1.1//EN" "http://www.w3.org/Graphics/SVG/1.1/DTD/svg11.dtd">
<svg width="100%" height="100%" viewBox="0 0 25 20" version="1.1" xmlns="http://www.w3.org/2000/svg" xmlns:xlink="http://www.w3.org/1999/xlink" xml:space="preserve" xmlns:serif="http://www.serif.com/" style="fill-rule:evenodd;clip-rule:evenodd;stroke-linejoin:round;stroke-miterlimit:2;">
    <g transform="matrix(1,0,0,1,-235,-321.4)">
        <g transform="matrix(0.0375,0,0,-0.0375,235,340.6)">
            <path d="M57.89,114.8C51.628,123.416 41.87,127.99 31.97,127.99C8.64,127.99 -0.01,107.31 -0.01,95.96C-0.01,89.438 1.977,82.86 6.105,77.18L52.625,13.18C58.89,4.6 68.64,0 78.55,0C101.84,0 110.52,20.66 110.52,32.03C110.52,38.552 108.532,45.13 104.405,50.81L57.89,114.8ZM496.1,160C451.97,160 416.38,124.25 416.38,80C416.38,35.75 451.97,0 496.1,0C540.23,0 576.01,35.75 576.01,80C576.01,124.25 540.2,160 496.1,160ZM640,412.62C640,426.23 635.867,439.96 627.28,451.82L603.65,484.32C590.21,502.82 569.88,512 549.53,512C535.64,512 521.74,507.719 510.02,499.2L307.8,352.3C262.2,319.2 220.4,281.1 183.4,238.6C159.18,210.72 124.22,174.61 79.9,138.97L136.24,61.45C190.03,96.84 235.39,116.75 263.34,128.72C315.22,150.72 364.64,178.59 410.24,210.82L612.54,357.52C630.5,371.6 640,392 640,412.62Z"/>
        </g>
    </g>
</svg>
