<?xml version="1.0" encoding="UTF-8" standalone="no"?>
<!DOCTYPE svg PUBLIC "-//W3C//DTD SVG 1.1//EN" "http://www.w3.org/Graphics/SVG/1.1/DTD/svg11.dtd">
<svg width="100%" height="100%" viewBox="0 0 25 22" version="1.1" xmlns="http://www.w3.org/2000/svg" xmlns:xlink="http://www.w3.org/1999/xlink" xml:space="preserve" xmlns:serif="http://www.serif.com/" style="fill-rule:evenodd;clip-rule:evenodd;stroke-linejoin:round;stroke-miterlimit:2;">
    <g transform="matrix(1,0,0,1,-235,-402.333)">
        <g transform="matrix(0.041667,0,0,-0.041667,235,424.058)">
            <path d="M368,233.4L31.1,233.4C14.33,233.4 0,219.1 0,202.3C0,185.5 14.33,169.4 31.1,169.4L63.1,169.4L64,57.4C64,30.9 85.49,9.4 112,9.4L368,9.4C394.51,9.4 416,30.89 416,57.4L416,185.4C416,211.9 394.5,233.4 368,233.4ZM352,521.4C303.4,521.4 261.8,494.02 240,454.15C218.3,494.02 176.6,521.4 128,521.4C57.25,521.4 0,464.15 0,393.4C0,322.65 57.23,266.3 127.1,266.3L352,265.4C422.75,265.4 480,322.65 480,393.4C480,464.15 422.8,521.4 352,521.4ZM128,329.4C92.62,329.4 64,358.02 64,393.4C64,428.78 92.62,457.4 128,457.4C163.38,457.4 192,428.78 192,393.4C192,358.02 163.4,329.4 128,329.4ZM352,329.4C316.62,329.4 288,358.02 288,393.4C288,428.78 316.62,457.4 352,457.4C387.38,457.4 416,428.78 416,393.4C416,358.02 387.4,329.4 352,329.4ZM524.8,258.9L448,201.4L448,73.4L524.76,15.86C545.9,0 576,15.1 576,41.5L576,233.4C576,259.7 545.9,274.8 524.8,258.9Z"/>
        </g>
    </g>
</svg>
