<?xml version="1.0" encoding="UTF-8" standalone="no"?>
<!DOCTYPE svg PUBLIC "-//W3C//DTD SVG 1.1//EN" "http://www.w3.org/Graphics/SVG/1.1/DTD/svg11.dtd">
<svg width="100%" height="100%" viewBox="0 0 22 22" version="1.1" xmlns="http://www.w3.org/2000/svg" xmlns:xlink="http://www.w3.org/1999/xlink" xml:space="preserve" xmlns:serif="http://www.serif.com/" style="fill-rule:evenodd;clip-rule:evenodd;stroke-linejoin:round;stroke-miterlimit:2;">
    <g transform="matrix(1,0,0,1,-277.496,-462.492)">
        <g transform="matrix(0.046875,0,0,-0.046875,277.5,484.991)">
            <path d="M224.1,370.8C160.5,370.8 109.2,319.5 109.2,255.9C109.2,192.3 160.5,141 224.1,141C287.7,141 339,192.3 339,255.9C339,319.5 287.7,370.8 224.1,370.8ZM224.1,181.2C183,181.2 149.4,214.7 149.4,255.9C149.4,297.1 182.9,330.6 224.1,330.6C265.3,330.6 298.8,297.1 298.8,255.9C298.8,214.7 265.2,181.2 224.1,181.2ZM370.5,375.5C370.5,360.6 358.5,348.7 343.7,348.7C328.8,348.7 316.9,360.7 316.9,375.5C316.9,390.3 328.9,402.3 343.7,402.3C358.5,402.3 370.5,390.3 370.5,375.5ZM446.6,348.3C444.9,384.2 436.7,416 410.4,442.2C384.2,468.4 352.4,476.6 316.5,478.4C279.5,480.5 168.6,480.5 131.6,478.4C95.8,476.7 64,468.5 37.7,442.3C11.4,416.1 3.3,384.3 1.5,348.4C-0.6,311.4 -0.6,200.5 1.5,163.5C3.2,127.6 11.4,95.8 37.7,69.6C64,43.4 95.7,35.2 131.6,33.4C168.6,31.3 279.5,31.3 316.5,33.4C352.4,35.1 384.2,43.3 410.4,69.6C436.6,95.8 444.8,127.6 446.6,163.5C448.7,200.5 448.7,311.3 446.6,348.3ZM398.8,123.8C391,104.2 375.9,89.1 356.2,81.2C326.7,69.5 256.7,72.2 224.1,72.2C191.5,72.2 121.4,69.6 92,81.2C72.4,89 57.3,104.1 49.4,123.8C37.7,153.3 40.4,223.3 40.4,255.9C40.4,288.5 37.8,358.6 49.4,388C57.2,407.6 72.3,422.7 92,430.6C121.5,442.3 191.5,439.6 224.1,439.6C256.7,439.6 326.8,442.2 356.2,430.6C375.8,422.8 390.9,407.7 398.8,388C410.5,358.5 407.8,288.5 407.8,255.9C407.8,223.3 410.5,153.2 398.8,123.8Z"/>
        </g>
    </g>
</svg>
