<?xml version="1.0" encoding="UTF-8" standalone="no"?>
<!DOCTYPE svg PUBLIC "-//W3C//DTD SVG 1.1//EN" "http://www.w3.org/Graphics/SVG/1.1/DTD/svg11.dtd">
<svg width="100%" height="100%" viewBox="0 0 24 20" version="1.1" xmlns="http://www.w3.org/2000/svg" xmlns:xlink="http://www.w3.org/1999/xlink" xml:space="preserve" xmlns:serif="http://www.serif.com/" style="fill-rule:evenodd;clip-rule:evenodd;stroke-linejoin:round;stroke-miterlimit:2;">
    <g transform="matrix(1,0,0,1,-316,-463.254)">
        <g transform="matrix(0.046875,0,0,-0.046875,316,485)">
            <path d="M459.37,360.285C459.695,355.737 459.695,351.188 459.695,346.64C459.695,207.92 354.112,48.082 161.137,48.082C101.685,48.082 46.457,65.301 0,95.188C8.447,94.214 16.568,93.889 25.34,93.889C74.395,93.889 119.553,110.457 155.614,138.721C109.482,139.696 70.822,169.909 57.502,211.493C64,210.519 70.497,209.869 77.32,209.869C86.741,209.869 96.163,211.169 104.934,213.442C56.853,223.189 20.791,265.422 20.791,316.427L20.791,317.726C34.76,309.929 51.005,305.056 68.222,304.407C39.958,323.25 21.441,355.412 21.441,391.798C21.441,411.29 26.638,429.158 35.735,444.752C87.39,381.077 165.035,339.494 252.1,334.945C250.476,342.742 249.501,350.863 249.501,358.985C249.501,416.813 296.283,463.919 354.435,463.919C384.648,463.919 411.937,451.249 431.105,430.782C454.82,435.33 477.561,444.102 497.704,456.122C489.906,431.756 473.338,411.289 451.572,398.295C472.689,400.568 493.156,406.417 511.998,414.538C497.706,393.747 479.837,375.23 459.37,360.285Z"/>
        </g>
    </g>
</svg>
